<svg xmlns="http://www.w3.org/2000/svg" viewBox="0 0 561.2296787672428 130.27723866028708" height="91.81134815980838" width="395.52"><g><rect width="8.501111308607081" height="94.73851291866026" x="134.95434937327684" y="17.76936287081341" fill="#ffffff" opacity="1" stroke-width="0" stroke="transparent" fill-opacity="1" class="rect-r-0" data-fill-palette-color="primary" rx="1%" id="r-0" data-palette-color="#000000"/></g><g transform="matrix(1,0,0,1,165.70967876724276,18.005030813397134)"><svg viewBox="0 0 395.52 94.26717703349281" height="94.26717703349281" width="395.52"><g id="textblocktransform"><svg viewBox="0 0 395.52 94.26717703349281" height="94.26717703349281" width="395.52" id="textblock"><g><svg viewBox="0 0 395.52 94.26717703349281" height="94.26717703349281" width="395.52"><g transform="matrix(1,0,0,1,0,0)"><svg width="395.52" viewBox="2.9800000190734863 -38.720001220703125 163.27000427246094 38.92000198364258" height="94.26717703349281" data-palette-color="#000000"><g class="wordmark-text-0" data-fill-palette-color="primary" id="text-0"><path d="M40.23-8.59L40.23-8.59Q40.23-6.25 39.11-4.81 37.99-3.37 35.94-2.49L35.94-2.49Q34.23-1.76 31.64-1.34 29.05-0.93 26.27-0.76 23.49-0.59 20.8-0.54 18.12-0.49 16.31-0.49L16.31-0.49Q13.23-0.49 10.23-0.59 7.23-0.68 4.15-0.88L4.15-0.88Q4.3-5.86 3.86-10.74L3.86-10.74Q7.52-10.64 11.16-10.57 14.79-10.5 18.46-10.4L18.46-10.4Q19.87-10.35 21.31-10.3 22.75-10.25 24.22-10.25L24.22-10.25Q24.46-10.25 24.95-10.25 25.44-10.25 25.98-10.3 26.51-10.35 26.98-10.45 27.44-10.55 27.69-10.74L27.69-10.74Q27.88-10.94 27.93-11.3 27.98-11.67 27.98-11.96L27.98-11.96Q27.98-12.5 27.83-13.26 27.69-14.01 27.39-14.5L27.39-14.5Q27.34-14.55 27.08-14.6 26.81-14.65 26.46-14.67 26.12-14.7 25.83-14.72 25.54-14.75 25.49-14.75L25.49-14.75Q22.36-14.99 19.26-15.09 16.16-15.19 13.04-15.43L13.04-15.43Q11.62-15.58 10.13-15.72 8.64-15.87 7.37-16.26L7.37-16.26Q6.15-16.6 5.3-17.8 4.44-18.99 3.93-20.53 3.42-22.07 3.2-23.63 2.98-25.2 2.98-26.27L2.98-26.27Q2.98-28.03 3.32-29.61 3.66-31.2 4.42-32.57 5.18-33.94 6.35-34.99 7.52-36.04 9.23-36.72L9.23-36.72Q12.16-37.84 15.5-38.28 18.85-38.72 21.92-38.72L21.92-38.72Q25.54-38.72 29.05-38.28 32.57-37.84 36.08-37.16L36.08-37.16Q36.04-35.74 36.01-34.35 35.99-32.96 35.99-31.54L35.99-31.54Q35.99-30.13 36.13-28.69 36.28-27.25 36.43-25.83L36.43-25.83Q31.79-25.73 27.17-25.66 22.56-25.59 17.87-25.39L17.87-25.39Q17.29-25.39 16.28-25.34 15.28-25.29 14.36-25.22 13.43-25.15 12.74-25.1 12.06-25.05 12.06-25.05L12.06-25.05Q11.82-24.51 11.77-23.95 11.72-23.39 11.72-22.8L11.72-22.8Q11.72-22.51 11.74-22.07 11.77-21.63 11.96-21.39L11.96-21.39Q12.01-21.34 12.79-21.24 13.57-21.14 14.53-21.04 15.48-20.95 16.33-20.85 17.19-20.75 17.38-20.75L17.38-20.75Q18.99-20.61 21.17-20.41 23.34-20.21 25.61-19.97 27.88-19.73 29.98-19.36 32.08-18.99 33.64-18.51L33.64-18.51Q35.06-18.02 36.25-16.97 37.45-15.92 38.33-14.53 39.21-13.13 39.72-11.6 40.23-10.06 40.23-8.59ZM78.61-22.02L78.61-22.02Q78.61-17.92 78.32-13.87 78.02-9.81 77.73-5.76L77.73-5.76Q72.26-5.27 66.84-4.93 61.42-4.59 55.95-4.59L55.95-4.59Q55.47-4.59 54.15-4.61 52.83-4.64 51.36-4.71 49.9-4.79 48.58-4.91 47.26-5.03 46.82-5.27L46.82-5.27Q45.21-6.15 44.58-7.5 43.94-8.84 43.94-10.55L43.94-10.55Q43.94-11.13 43.99-12.11 44.04-13.09 44.19-14.16 44.33-15.23 44.58-16.16 44.82-17.09 45.16-17.53L45.16-17.53Q45.6-18.12 47.17-18.53 48.73-18.95 50.9-19.19 53.07-19.43 55.59-19.58 58.1-19.73 60.4-19.8 62.69-19.87 64.5-19.87 66.31-19.87 67.09-19.87L67.09-19.87Q67.23-20.95 67.23-21.97L67.23-21.97Q67.23-22.07 67.23-22.49 67.23-22.9 67.19-23L67.19-23Q67.04-23.29 66.26-23.49 65.48-23.68 64.33-23.78 63.18-23.88 61.84-23.95 60.5-24.02 59.23-24.02 57.96-24.02 56.98-24.02 56-24.02 55.56-24.02L55.56-24.02Q52.49-24.02 49.41-23.9 46.34-23.78 43.26-23.68L43.26-23.68Q43.45-25.54 43.58-27.44 43.7-29.35 43.6-31.2L43.6-31.2Q47.17-31.84 50.75-32.1 54.34-32.37 58.01-32.37L58.01-32.37Q59.32-32.37 60.89-32.35 62.45-32.32 64.01-32.25 65.57-32.18 67.11-32.03 68.65-31.88 69.97-31.64L69.97-31.64Q71.34-31.4 72.68-30.76 74.02-30.13 75.19-29.2 76.36-28.27 77.24-27.08 78.12-25.88 78.51-24.51L78.51-24.51Q78.56-24.37 78.59-24.02 78.61-23.68 78.61-23.27 78.61-22.85 78.61-22.51 78.61-22.17 78.61-22.02ZM67.72-10.55L67.72-10.55 67.72-16.8Q66.31-16.85 64.89-16.87 63.47-16.89 62.06-16.89L62.06-16.89Q61.77-16.89 60.42-16.87 59.08-16.85 57.54-16.75 56-16.65 54.73-16.5 53.46-16.36 53.27-16.06L53.27-16.06Q53.02-15.67 52.95-15.26 52.88-14.84 52.88-14.4L52.88-14.4Q52.88-14.06 52.93-13.48 52.98-12.89 53.1-12.26 53.22-11.62 53.37-11.08 53.51-10.55 53.76-10.3L53.76-10.3Q53.95-10.06 54.42-9.94 54.88-9.81 55.42-9.74 55.95-9.67 56.49-9.64 57.03-9.62 57.32-9.62L57.32-9.62Q58.49-9.62 59.84-9.72 61.18-9.81 62.57-9.94 63.96-10.06 65.28-10.23 66.6-10.4 67.72-10.55ZM107.61-8.64L107.61-8.64 106.78-0.05Q105.22 0.05 103.66 0.12 102.09 0.2 100.53 0.2L100.53 0.2Q99.7 0.2 98.33 0.15 96.97 0.1 95.5-0.02 94.04-0.15 92.72-0.37 91.4-0.59 90.62-0.93L90.62-0.93Q89.45-1.46 88.69-2.34 87.93-3.22 87.45-4.27 86.96-5.32 86.66-6.52 86.37-7.71 86.23-8.89L86.23-8.89Q86.08-10.01 86.01-11.3 85.93-12.6 85.91-13.96 85.88-15.33 85.88-16.63 85.88-17.92 85.88-19.04L85.88-19.04 85.88-20.51 82.86-20.51Q83.05-22.71 83.08-24.85 83.1-27 83.3-29.2L83.3-29.2 86.23-29.1 86.23-36.33Q89.01-35.79 91.77-35.77 94.53-35.74 97.31-35.55L97.31-35.55 97.21-28.08 101.31-27.83Q101.31-27.49 101.34-27.2 101.36-26.9 101.36-26.56L101.36-26.56Q101.36-25.2 101.14-23.9 100.92-22.61 100.58-21.29L100.58-21.29 97.02-21.29Q96.92-19.04 96.87-16.8 96.82-14.55 96.82-12.3L96.82-12.3Q96.82-11.23 96.89-10.38 96.97-9.52 97.29-8.94 97.6-8.35 98.33-8.06 99.07-7.76 100.39-7.76L100.39-7.76Q102.19-7.76 104-8.01 105.81-8.25 107.61-8.64ZM131.63-8.64L131.63-8.64 130.8-0.05Q129.24 0.05 127.68 0.12 126.12 0.2 124.55 0.2L124.55 0.2Q123.72 0.2 122.36 0.15 120.99 0.1 119.52-0.02 118.06-0.15 116.74-0.37 115.42-0.59 114.64-0.93L114.64-0.93Q113.47-1.46 112.71-2.34 111.96-3.22 111.47-4.27 110.98-5.32 110.69-6.52 110.39-7.71 110.25-8.89L110.25-8.89Q110.1-10.01 110.03-11.3 109.95-12.6 109.93-13.96 109.9-15.33 109.9-16.63 109.9-17.92 109.9-19.04L109.9-19.04 109.9-20.51 106.88-20.51Q107.07-22.71 107.1-24.85 107.12-27 107.32-29.2L107.32-29.2 110.25-29.1 110.25-36.33Q113.03-35.79 115.79-35.77 118.55-35.74 121.33-35.55L121.33-35.55 121.23-28.08 125.33-27.83Q125.33-27.49 125.36-27.2 125.38-26.9 125.38-26.56L125.38-26.56Q125.38-25.2 125.16-23.9 124.94-22.61 124.6-21.29L124.6-21.29 121.04-21.29Q120.94-19.04 120.89-16.8 120.84-14.55 120.84-12.3L120.84-12.3Q120.84-11.23 120.92-10.38 120.99-9.52 121.31-8.94 121.62-8.35 122.36-8.06 123.09-7.76 124.41-7.76L124.41-7.76Q126.21-7.76 128.02-8.01 129.83-8.25 131.63-8.64ZM166.25-22.02L166.25-22.02Q166.25-17.92 165.96-13.87 165.66-9.81 165.37-5.76L165.37-5.76Q159.9-5.27 154.48-4.93 149.06-4.59 143.59-4.59L143.59-4.59Q143.11-4.59 141.79-4.61 140.47-4.64 139-4.71 137.54-4.79 136.22-4.91 134.9-5.03 134.46-5.27L134.46-5.27Q132.85-6.15 132.22-7.5 131.58-8.84 131.58-10.55L131.58-10.55Q131.58-11.13 131.63-12.11 131.68-13.09 131.83-14.16 131.97-15.23 132.22-16.16 132.46-17.09 132.8-17.53L132.8-17.53Q133.24-18.12 134.8-18.53 136.37-18.95 138.54-19.19 140.71-19.43 143.23-19.58 145.74-19.73 148.04-19.8 150.33-19.87 152.14-19.87 153.95-19.87 154.73-19.87L154.73-19.87Q154.87-20.95 154.87-21.97L154.87-21.97Q154.87-22.07 154.87-22.49 154.87-22.9 154.82-23L154.82-23Q154.68-23.29 153.9-23.49 153.12-23.68 151.97-23.78 150.82-23.88 149.48-23.95 148.13-24.02 146.87-24.02 145.6-24.02 144.62-24.02 143.64-24.02 143.2-24.02L143.2-24.02Q140.13-24.02 137.05-23.9 133.97-23.78 130.9-23.68L130.9-23.68Q131.09-25.54 131.22-27.44 131.34-29.35 131.24-31.2L131.24-31.2Q134.8-31.84 138.39-32.1 141.98-32.37 145.64-32.37L145.64-32.37Q146.96-32.37 148.53-32.35 150.09-32.32 151.65-32.25 153.21-32.18 154.75-32.03 156.29-31.88 157.61-31.64L157.61-31.64Q158.97-31.4 160.32-30.76 161.66-30.13 162.83-29.2 164-28.27 164.88-27.08 165.76-25.88 166.15-24.51L166.15-24.51Q166.2-24.37 166.23-24.02 166.25-23.68 166.25-23.27 166.25-22.85 166.25-22.51 166.25-22.17 166.25-22.02ZM155.36-10.55L155.36-10.55 155.36-16.8Q153.95-16.85 152.53-16.87 151.11-16.89 149.7-16.89L149.7-16.89Q149.4-16.89 148.06-16.87 146.72-16.85 145.18-16.75 143.64-16.65 142.37-16.5 141.1-16.36 140.91-16.06L140.91-16.06Q140.66-15.67 140.59-15.26 140.52-14.84 140.52-14.4L140.52-14.4Q140.52-14.06 140.57-13.48 140.62-12.89 140.74-12.26 140.86-11.62 141.01-11.08 141.15-10.55 141.4-10.3L141.4-10.3Q141.59-10.06 142.06-9.94 142.52-9.81 143.06-9.74 143.59-9.67 144.13-9.64 144.67-9.62 144.96-9.62L144.96-9.62Q146.13-9.62 147.48-9.72 148.82-9.81 150.21-9.94 151.6-10.06 152.92-10.23 154.24-10.4 155.36-10.55Z" fill="#1cc343" data-fill-palette-color="primary"/></g></svg></g></svg></g></svg></g></svg></g><g><svg viewBox="0 0 112.700131287918 130.27723866028708" height="130.27723866028708" width="112.700131287918"><g><svg xmlns="http://www.w3.org/2000/svg" xmlns:xlink="http://www.w3.org/1999/xlink" version="1.1" x="0" y="0" viewBox="17.299999237060547 12.199999809265137 65.39999389648438 75.60000610351562" style="enable-background:new 0 0 100 100;" xml:space="preserve" height="130.27723866028708" width="112.700131287918" class="icon-icon-0" data-fill-palette-color="accent" id="icon-0"><path d="M50 12.2L17.3 31.1v37.8L50 87.8l32.7-18.9V31.1L50 12.2zM32.1 37.4L50 16l17 21.4H32.1zM67.3 39.4L50 70.4l-18.2-31H67.3zM48.1 71l-27.7-4.5 9.8-25.9L48.1 71zM68.9 40.7l10.7 25.9-27.7 4.5L68.9 40.7zM69.2 37.1L52.6 16l27 15.6L69.2 37.1zM29.8 37.1l-9.4-5.5 26.8-15.5L29.8 37.1zM28.8 38.8l-9.5 25V33.3L28.8 38.8zM49 73.2v11.7L20.9 68.7 49 73.2zM51 73.2l28.1-4.5L51 84.9V73.2zM70.3 38.8l10.5-5.6v30.9L70.3 38.8z" fill="#1cc343" data-fill-palette-color="accent"/></svg></g></svg></g></svg>